<svg width="28" height="22" viewBox="0 0 28 22" fill="none" xmlns="http://www.w3.org/2000/svg">
<path d="M27.0157 18.8027H0.984421C0.838327 18.8027 0.718796 18.9223 0.718796 19.0683V20.9277C0.718796 21.0738 0.838327 21.1933 0.984421 21.1933H27.0157C27.1618 21.1933 27.2813 21.0738 27.2813 20.9277V19.0683C27.2813 18.9223 27.1618 18.8027 27.0157 18.8027ZM2.5018 14.6457L3.81997 15.9572C3.9229 16.0601 4.09223 16.0601 4.19516 15.9572L11.9879 8.19101L15.2286 11.4217C15.4282 11.6195 15.6979 11.7305 15.979 11.7305C16.26 11.7305 16.5297 11.6195 16.7293 11.4217L25.5016 2.68261C25.6045 2.57968 25.6045 2.41034 25.5016 2.30741L24.1834 0.99257C24.1335 0.943136 24.0661 0.915405 23.9958 0.915405C23.9256 0.915405 23.8582 0.943136 23.8083 0.99257L15.9823 8.7953L12.7383 5.56464C12.5387 5.36683 12.269 5.25585 11.9879 5.25585C11.7069 5.25585 11.4372 5.36683 11.2375 5.56464L2.5018 14.2705C2.47697 14.295 2.45725 14.3242 2.44379 14.3564C2.43033 14.3886 2.4234 14.4232 2.4234 14.4581C2.4234 14.493 2.43033 14.5276 2.44379 14.5598C2.45725 14.592 2.47697 14.6212 2.5018 14.6457Z" fill="white"/>
</svg>
